<svg xmlns="http://www.w3.org/2000/svg" viewBox="0 0 256 256" role="img" aria-labelledby="title desc">
  <title id="title">PeekaListing binocular mark</title>
  <desc id="desc">Blue binoculars with two eye lenses.</desc>
  <defs>
    <linearGradient id="body" x1="38" y1="24" x2="214" y2="226" gradientUnits="userSpaceOnUse">
      <stop stop-color="#4F8DFF"/>
      <stop offset="0.48" stop-color="#2563EB"/>
      <stop offset="1" stop-color="#1746C7"/>
    </linearGradient>
    <linearGradient id="rim" x1="62" y1="70" x2="183" y2="201" gradientUnits="userSpaceOnUse">
      <stop stop-color="#75A7FF"/>
      <stop offset="1" stop-color="#1D4ED8"/>
    </linearGradient>
    <radialGradient id="iris" cx="0" cy="0" r="1" gradientTransform="translate(88 149) rotate(55) scale(42)">
      <stop stop-color="#2F7BFF"/>
      <stop offset="0.62" stop-color="#123A92"/>
      <stop offset="1" stop-color="#07152F"/>
    </radialGradient>
    <filter id="shadow" x="-20%" y="-20%" width="140%" height="150%">
      <feDropShadow dx="0" dy="10" stdDeviation="10" flood-color="#031024" flood-opacity="0.28"/>
    </filter>
  </defs>
  <g filter="url(#shadow)">
    <path fill="url(#body)" d="M48 59c0-19 15-34 34-34h18c17 0 31 12 34 28l4 20h-20l-4-16c-1-5-6-9-11-9H84c-8 0-14 6-14 14v24H48V59Z"/>
    <path fill="url(#body)" d="M208 59c0-19-15-34-34-34h-18c-17 0-31 12-34 28l-4 20h20l4-16c1-5 6-9 11-9h19c8 0 14 6 14 14v24h22V59Z"/>
    <rect x="117" y="47" width="22" height="18" rx="7" fill="#2A67E8"/>
    <path fill="url(#body)" d="M43 98c0-14 11-25 25-25h50c15 0 28 10 32 24l6 22h-24l-4-15c-1-5-6-9-12-9H68c-3 0-6 3-6 6v30H43V98Z"/>
    <path fill="url(#body)" d="M213 98c0-14-11-25-25-25h-50c-15 0-28 10-32 24l-6 22h24l4-15c1-5 6-9 12-9h48c3 0 6 3 6 6v30h19V98Z"/>
    <circle cx="82" cy="154" r="61" fill="url(#body)"/>
    <circle cx="174" cy="154" r="61" fill="url(#body)"/>
    <circle cx="82" cy="154" r="49" fill="url(#rim)"/>
    <circle cx="174" cy="154" r="49" fill="url(#rim)"/>
    <circle cx="82" cy="154" r="39" fill="#F8FAFC"/>
    <circle cx="174" cy="154" r="39" fill="#F8FAFC"/>
    <circle cx="82" cy="154" r="25" fill="url(#iris)"/>
    <circle cx="174" cy="154" r="25" fill="url(#iris)"/>
    <circle cx="82" cy="154" r="13" fill="#050914"/>
    <circle cx="174" cy="154" r="13" fill="#050914"/>
    <circle cx="73" cy="143" r="7" fill="#FFFFFF"/>
    <circle cx="165" cy="143" r="7" fill="#FFFFFF"/>
    <path d="M113 137c4-8 10-12 15-12s11 4 15 12v34c-4-8-10-12-15-12s-11 4-15 12v-34Z" fill="#1746C7"/>
  </g>
</svg>
